<svg width="74" height="50" viewBox="0 0 74 50" fill="none" xmlns="http://www.w3.org/2000/svg">
<rect x="0.349359" y="0.349359" width="72.6667" height="108.301" rx="36.3333" stroke="white" stroke-opacity="0.2" stroke-width="0.698718"/>
<path d="M36.6825 20.1019C36.9866 20.1019 37.2781 20.2227 37.4931 20.4376C37.7081 20.6526 37.8289 20.9442 37.8289 21.2482V34.6787L42.324 29.6547C42.5272 29.4301 42.8111 29.2951 43.1135 29.2791C43.416 29.2632 43.7125 29.3675 43.9382 29.5694C44.164 29.7714 44.3006 30.0544 44.3183 30.3568C44.3361 30.6591 44.2334 30.9562 44.0328 31.1831L37.5369 38.4432C37.4294 38.5637 37.2976 38.6601 37.1503 38.7261C37.0029 38.7921 36.8432 38.8262 36.6818 38.8262C36.5203 38.8262 36.3606 38.7921 36.2133 38.7261C36.0659 38.6601 35.9341 38.5637 35.8266 38.4432L29.3307 31.1831C29.2293 31.0711 29.1511 30.9401 29.1005 30.7977C29.0499 30.6554 29.028 30.5044 29.0359 30.3535C29.0439 30.2026 29.0816 30.0548 29.1469 29.9185C29.2122 29.7823 29.3038 29.6602 29.4164 29.5595C29.529 29.4588 29.6605 29.3813 29.8031 29.3315C29.9458 29.2818 30.0969 29.2607 30.2478 29.2696C30.3986 29.2784 30.5462 29.317 30.6821 29.3831C30.818 29.4492 30.9394 29.5415 31.0395 29.6547L35.5362 34.6787V21.2482C35.5362 20.9442 35.657 20.6526 35.8719 20.4376C36.0869 20.2227 36.3785 20.1019 36.6825 20.1019Z" fill="white" fill-opacity="0.2"/>
</svg>
