<svg width="86" height="32" viewBox="0 0 86 32" fill="none" xmlns="http://www.w3.org/2000/svg">
<g clip-path="url(#clip0_32472_1185)">
<path d="M45.03 9.36654C45.03 10.3275 44.2559 11.1016 43.2949 11.1016C42.334 11.1016 41.5599 10.3275 41.5599 9.36654C41.5599 8.40558 42.3073 7.63147 43.2949 7.63147C44.2826 7.65816 45.03 8.43227 45.03 9.36654ZM37.8762 12.8634C37.8762 13.0235 37.8762 13.2905 37.8762 13.2905C37.8762 13.2905 37.0487 12.2227 35.2869 12.2227C32.3774 12.2227 30.1084 14.4383 30.1084 17.508C30.1084 20.5511 32.3507 22.7933 35.2869 22.7933C37.0754 22.7933 37.8762 21.6989 37.8762 21.6989V22.1527C37.8762 22.3662 38.0364 22.5264 38.2499 22.5264H40.4121V12.4897C40.4121 12.4897 38.4368 12.4897 38.2499 12.4897C38.0364 12.4897 37.8762 12.6765 37.8762 12.8634ZM37.8762 19.2965C37.4758 19.8837 36.675 20.3909 35.714 20.3909C34.0057 20.3909 32.6977 19.3232 32.6977 17.508C32.6977 15.6929 34.0057 14.6251 35.714 14.6251C36.6483 14.6251 37.5025 15.159 37.8762 15.7196V19.2965ZM42.0137 12.4897H44.5762V22.5264H42.0137V12.4897ZM80.2919 12.2227C78.5302 12.2227 77.7027 13.2905 77.7027 13.2905V7.65816H75.1401V22.5264C75.1401 22.5264 77.1154 22.5264 77.3023 22.5264C77.5158 22.5264 77.676 22.3395 77.676 22.1527V21.6989C77.676 21.6989 78.5035 22.7933 80.2652 22.7933C83.1748 22.7933 85.4437 20.5511 85.4437 17.508C85.4437 14.465 83.1748 12.2227 80.2919 12.2227ZM79.8648 20.3642C78.8772 20.3642 78.1031 19.857 77.7027 19.2698V15.6929C78.1031 15.159 78.9573 14.5984 79.8648 14.5984C81.5732 14.5984 82.8812 15.6662 82.8812 17.4813C82.8812 19.2965 81.5732 20.3642 79.8648 20.3642ZM73.8055 16.5737V22.5531H71.2429V16.8674C71.2429 15.2124 70.709 14.545 69.2676 14.545C68.4935 14.545 67.6927 14.9455 67.1855 15.5327V22.5264H64.6229V12.4897H66.6516C66.8652 12.4897 67.0253 12.6765 67.0253 12.8634V13.2905C67.7728 12.5164 68.7604 12.2227 69.7481 12.2227C70.8692 12.2227 71.8034 12.543 72.5509 13.1837C73.4584 13.9311 73.8055 14.8921 73.8055 16.5737ZM58.4034 12.2227C56.6416 12.2227 55.8141 13.2905 55.8141 13.2905V7.65816H53.2516V22.5264C53.2516 22.5264 55.2269 22.5264 55.4137 22.5264C55.6273 22.5264 55.7874 22.3395 55.7874 22.1527V21.6989C55.7874 21.6989 56.6149 22.7933 58.3767 22.7933C61.2863 22.7933 63.5552 20.5511 63.5552 17.508C63.5819 14.465 61.313 12.2227 58.4034 12.2227ZM57.9763 20.3642C56.9886 20.3642 56.2145 19.857 55.8141 19.2698V15.6929C56.2145 15.159 57.0687 14.5984 57.9763 14.5984C59.6847 14.5984 60.9926 15.6662 60.9926 17.4813C60.9926 19.2965 59.6847 20.3642 57.9763 20.3642ZM51.036 12.2227C51.8101 12.2227 52.2105 12.3562 52.2105 12.3562V14.7319C52.2105 14.7319 50.0751 14.0112 48.7404 15.5327V22.5531H46.1778V12.4897C46.1778 12.4897 48.1531 12.4897 48.34 12.4897C48.5535 12.4897 48.7137 12.6765 48.7137 12.8634V13.2905C49.1942 12.7299 50.2352 12.2227 51.036 12.2227ZM24.4227 21.6188C24.2893 21.2985 24.1558 20.9515 24.0223 20.6578C23.8088 20.1773 23.5952 19.7236 23.4084 19.2965L23.3817 19.2698C21.5399 15.2658 19.5645 11.2084 17.4825 7.20438L17.4024 7.04422C17.1888 6.64381 16.9753 6.21672 16.7617 5.78963C16.4948 5.30915 16.2279 4.80197 15.8008 4.32149C14.9466 3.25376 13.7187 2.6665 12.4107 2.6665C11.0761 2.6665 9.87486 3.25376 8.99398 4.26811C8.59358 4.74859 8.29995 5.25576 8.03302 5.73624C7.81947 6.16333 7.60592 6.59043 7.39238 6.99083L7.3123 7.15099C5.25691 11.155 3.25491 15.2124 1.41307 19.2164L1.38637 19.2698C1.19952 19.6969 0.985972 20.1507 0.772426 20.6311C0.638959 20.9248 0.505492 21.2451 0.372025 21.5921C0.0250116 22.5798 -0.0817619 23.514 0.0517049 24.475C0.345332 26.477 1.68 28.1587 3.52184 28.9061C4.21587 29.1997 4.93659 29.3332 5.684 29.3332C5.89755 29.3332 6.16448 29.3065 6.37803 29.2798C7.25891 29.173 8.16649 28.8794 9.04737 28.3722C10.1418 27.7583 11.1828 26.8774 12.3573 25.5961C13.5318 26.8774 14.5996 27.7583 15.6673 28.3722C16.5482 28.8794 17.4558 29.173 18.3367 29.2798C18.5502 29.3065 18.8171 29.3332 19.0307 29.3332C19.7781 29.3332 20.5255 29.1997 21.1928 28.9061C23.0614 28.1587 24.3694 26.4503 24.663 24.475C24.8765 23.5407 24.7698 22.6064 24.4227 21.6188ZM12.384 23.0068C10.9426 21.1917 10.0083 19.4833 9.68801 18.0419C9.55454 17.4279 9.52785 16.8941 9.60793 16.4136C9.66131 15.9865 9.82147 15.6128 10.035 15.2925C10.5422 14.5717 11.3964 14.118 12.384 14.118C13.3717 14.118 14.2526 14.545 14.7331 15.2925C14.9466 15.6128 15.1068 15.9865 15.1601 16.4136C15.2402 16.8941 15.2135 17.4546 15.0801 18.0419C14.7597 19.4566 13.8255 21.165 12.384 23.0068ZM23.0347 24.2614C22.8478 25.6495 21.9136 26.8507 20.6056 27.3846C19.9649 27.6515 19.2709 27.7316 18.5769 27.6515C17.9096 27.5714 17.2422 27.3579 16.5482 26.9575C15.5872 26.4236 14.6263 25.5961 13.5052 24.3682C15.2669 22.206 16.3347 20.2307 16.7351 18.469C16.9219 17.6415 16.9486 16.8941 16.8685 16.2C16.7617 15.5327 16.5215 14.9188 16.1478 14.3849C15.3203 13.1837 13.9323 12.4897 12.384 12.4897C10.8358 12.4897 9.44777 13.2104 8.62027 14.3849C8.24657 14.9188 8.00632 15.5327 7.89955 16.2C7.79278 16.8941 7.81947 17.6682 8.03302 18.469C8.43342 20.2307 9.52785 22.2327 11.2629 24.3949C10.1685 25.6228 9.18083 26.4503 8.21987 26.9842C7.52584 27.3846 6.85851 27.5981 6.19118 27.6782C5.47046 27.7583 4.77643 27.6515 4.16248 27.4112C2.85451 26.8774 1.92024 25.6762 1.73339 24.2881C1.65331 23.6208 1.70669 22.9535 1.97363 22.206C2.05371 21.9391 2.18717 21.6722 2.32064 21.3519C2.50749 20.9248 2.72104 20.471 2.93459 20.0172L2.96128 19.9638C4.80312 15.9865 6.77843 11.9291 8.83382 7.97848L8.9139 7.81832C9.12745 7.41792 9.34099 6.99083 9.55454 6.59043C9.76809 6.16333 10.0083 5.76293 10.302 5.41592C10.8625 4.77528 11.6099 4.42827 12.4374 4.42827C13.2649 4.42827 14.0123 4.77528 14.5729 5.41592C14.8665 5.76293 15.1068 6.16333 15.3203 6.59043C15.5339 6.99083 15.7474 7.41792 15.9609 7.81832L16.041 7.97848C18.0697 11.9558 20.045 16.0132 21.8869 19.9905V20.0172C22.1004 20.4443 22.2873 20.9248 22.5008 21.3519C22.6343 21.6722 22.7677 21.9391 22.8478 22.206C23.0614 22.9001 23.1415 23.5674 23.0347 24.2614Z" fill="#FF5A5F"/>
</g>
<defs>
<clipPath id="clip0_32472_1185">
<rect width="85.3333" height="32" fill="white"/>
</clipPath>
</defs>
</svg>
