<svg width="86" height="32" viewBox="0 0 86 32" fill="none" xmlns="http://www.w3.org/2000/svg">
<path d="M17.14 11.1334C14.0549 11.1334 11.6443 13.6035 11.6443 16.9101C11.6443 20.2168 13.994 22.6657 17.14 22.6657C20.286 22.6657 22.6765 20.1745 22.6765 16.889C22.6765 13.6246 20.3269 11.1334 17.14 11.1334ZM17.1608 20.2827C15.4039 20.2827 14.1165 18.8436 14.1165 16.9109C14.1165 14.9564 15.3831 13.5181 17.14 13.5181C18.9177 13.5181 20.2043 14.9783 20.2043 16.9109C20.2043 18.8436 18.9177 20.2827 17.1608 20.2827ZM23.3503 13.6465H24.8827V22.4519H27.3342V11.3481H23.3503V13.6465ZM5.47487 13.5173C6.76226 13.5173 7.78368 14.3547 8.17145 15.6003H10.7663C10.296 12.9376 8.21231 11.1334 5.49568 11.1334C2.41057 11.1334 0 13.6035 0 16.9109C0 20.2184 2.34968 22.6665 5.49568 22.6665C8.15139 22.6665 10.276 20.8624 10.7462 18.1777H8.17145C7.80373 19.4233 6.78229 20.2827 5.49492 20.2827C3.71724 20.2827 2.47147 18.8436 2.47147 16.9109C2.47225 14.9564 3.69797 13.5173 5.47487 13.5173ZM69.929 15.8369L68.1313 15.558C67.2735 15.4296 66.6605 15.1287 66.6605 14.4198C66.6605 13.6465 67.4576 13.2603 68.54 13.2603C69.7249 13.2603 70.4811 13.797 70.6444 14.6775H73.0143C72.7483 12.444 71.1139 11.1342 68.6016 11.1342C66.0067 11.1342 64.2908 12.5302 64.2908 14.5059C64.2908 16.3955 65.4146 17.4915 67.6819 17.8346L69.4796 18.1134C70.3585 18.2419 70.8487 18.6078 70.8487 19.2948C70.8487 20.1753 69.9909 20.5404 68.8059 20.5404C67.355 20.5404 66.5379 19.9176 66.4154 18.9728H64.0047C64.2299 21.142 65.8434 22.6665 68.7851 22.6665C71.4617 22.6665 73.2385 21.3778 73.2385 19.1655C73.2385 17.1898 71.9519 16.1589 69.929 15.8369ZM26.1084 6.77383C25.2096 6.77383 24.5352 7.46085 24.5352 8.40562C24.5352 9.35038 25.2089 10.0374 26.1084 10.0374C27.0073 10.0374 27.6819 9.35038 27.6819 8.40562C27.6819 7.46085 27.0073 6.77383 26.1084 6.77383ZM62.0845 15.1499C62.0845 12.7449 60.6955 11.1342 57.7536 11.1342C54.9753 11.1342 53.4227 12.6164 53.116 14.8929H55.5472C55.6698 14.0124 56.3235 13.2823 57.7128 13.2823C58.9594 13.2823 59.5721 13.862 59.5721 14.571C59.5721 15.4946 58.4481 15.7304 57.0591 15.8808C55.1796 16.0954 52.8507 16.7825 52.8507 19.3598C52.8507 21.3575 54.2606 22.6454 56.508 22.6454C58.2646 22.6454 59.3678 21.8722 59.9199 20.6477C60.0016 21.7429 60.7779 22.4519 61.861 22.4519H63.291V20.1542H62.0852V15.1499H62.0845ZM59.6738 17.9419C59.6738 19.4241 58.4481 20.5192 56.9564 20.5192C56.037 20.5192 55.2607 20.1111 55.2607 19.2525C55.2607 18.1573 56.507 17.8565 57.6512 17.7281C58.7544 17.6207 59.3671 17.363 59.6738 16.8687V17.9419ZM46.6605 11.1334C45.2914 11.1334 44.1474 11.7351 43.3304 12.7441V6.6665H40.8789V22.4519H43.2894V20.9916C44.1064 22.0437 45.2715 22.6665 46.6605 22.6665C49.6021 22.6665 51.8293 20.2184 51.8293 16.9109C51.8293 13.6035 49.5614 11.1334 46.6605 11.1334ZM46.2929 20.2827C44.5359 20.2827 43.2486 18.8436 43.2486 16.9109C43.2486 14.9783 44.5561 13.5181 46.3128 13.5181C48.0905 13.5181 49.3362 14.9572 49.3362 16.9109C49.3362 18.8436 48.0495 20.2827 46.2929 20.2827ZM35.0153 11.1334C33.422 11.1334 32.3797 11.8204 31.767 12.7871V11.3481H29.3355V22.4511H31.7869V16.4166C31.7869 14.7198 32.8083 13.5173 34.3201 13.5173C35.73 13.5173 36.608 14.5694 36.608 16.0946V22.4519H39.0594V15.9019C39.0604 13.1091 37.692 11.1334 35.0153 11.1334ZM84.9244 16.5459C84.9244 13.3677 82.7181 11.1342 79.7556 11.1342C76.6096 11.1342 74.3009 13.6254 74.3009 16.9109C74.3009 20.3688 76.773 22.6665 79.7966 22.6665C82.3504 22.6665 84.3525 21.077 84.8628 18.8224H82.3087C81.9411 19.8103 81.0422 20.3688 79.8367 20.3688C78.2632 20.3688 77.0783 19.3379 76.813 17.5337H84.9237V16.5459H84.9244ZM76.9564 15.6865C77.3452 14.1401 78.4481 13.3888 79.7148 13.3888C81.1039 13.3888 82.1663 14.2262 82.4114 15.6865H76.9564Z" fill="#0052FF"/>
</svg>
