<svg width="86" height="32" viewBox="0 0 86 32" fill="none" xmlns="http://www.w3.org/2000/svg">
<path fill-rule="evenodd" clip-rule="evenodd" d="M22.6775 6.7373L15.4413 25.3036H8.6446L11.6729 17.6089H11.5371C9.03873 21.8655 5.31118 24.6677 0 25.3036V17.7155C0 17.7155 3.39769 17.4521 5.3951 14.6958H0V6.73745H6.06351V13.2831L6.1996 13.2823L8.67736 6.73745H13.263V13.2416L13.3991 13.2413L15.9698 6.7373H22.6775Z" fill="#146EF5"/>
<path d="M62.1374 23.2544H64.0902V8.54248H62.1374V23.2544Z" fill="white"/>
<path fill-rule="evenodd" clip-rule="evenodd" d="M51.3719 23.1042C51.7964 23.3358 52.2279 23.4515 52.6667 23.4515C53.3915 23.4515 54.04 23.22 54.6123 22.7568C55.1846 22.2936 55.6281 21.6552 55.9428 20.8416C56.2576 20.0216 56.4149 19.0922 56.4149 18.0531C56.4149 17.0141 56.2528 16.0846 55.9285 15.2647C55.6042 14.4448 55.1536 13.8095 54.5766 13.3588C53.9996 12.9019 53.3439 12.6766 52.6094 12.6828C52.1421 12.6828 51.6938 12.8018 51.2647 13.0396C50.8354 13.2775 50.4778 13.6154 50.1916 14.0536C50.1695 14.0869 50.1481 14.1206 50.1273 14.1547V8.55187H48.1673V23.2544H50.113L50.109 21.8809C50.1594 21.9619 50.2132 22.041 50.2704 22.1183C50.5803 22.5378 50.9475 22.8663 51.3719 23.1042ZM53.3748 20.7288C53.0553 20.9854 52.6905 21.1138 52.2804 21.1138C51.875 21.1138 51.5031 20.9823 51.1645 20.7195C50.8259 20.4503 50.5565 20.0842 50.3562 19.621C50.1607 19.1579 50.0629 18.6321 50.0629 18.0437C50.0581 17.4554 50.1535 16.9296 50.349 16.4664C50.5493 15.997 50.8187 15.634 51.1573 15.3774C51.4959 15.1145 51.8702 14.9862 52.2804 14.9924C52.6905 14.9862 53.0553 15.1114 53.3748 15.368C53.6991 15.6183 53.9471 15.9782 54.1188 16.4477C54.2952 16.9108 54.3834 17.4429 54.3834 18.0437C54.3834 18.6446 54.2952 19.1766 54.1188 19.6398C53.9471 20.1029 53.6991 20.466 53.3748 20.7288Z" fill="white"/>
<path d="M25.5078 9.4344H27.7396L29.7361 19.0039L31.8599 9.4344H33.7197L36.0231 18.8119L37.9401 9.4344H39.9859L36.9672 23.2544H35.043L32.7009 14.0934L30.5508 23.2544H28.6051L25.5078 9.4344Z" fill="white"/>
<path fill-rule="evenodd" clip-rule="evenodd" d="M43.2817 23.4985C42.5043 23.5047 41.8033 23.2794 41.1786 22.8225C40.5587 22.3593 40.0699 21.7178 39.7122 20.8979C39.3593 20.0779 39.1828 19.1422 39.1828 18.0907C39.1828 17.0705 39.3641 16.1472 39.7265 15.321C40.0889 14.4948 40.5801 13.8502 41.2 13.387C41.82 12.9238 42.5115 12.6922 43.2745 12.6922C44.1329 12.6922 44.884 12.9426 45.5278 13.4433C46.1763 13.944 46.6603 14.6544 46.9798 15.5745C47.3041 16.4883 47.421 17.5367 47.3304 18.7197H41.2031C41.2202 19.191 41.3098 19.6198 41.4719 20.0059C41.6531 20.4315 41.9059 20.7633 42.2301 21.0011C42.5544 21.2389 42.9168 21.3578 43.3174 21.3578C43.6226 21.3517 43.9063 21.2828 44.1686 21.1514C44.4309 21.0137 44.6527 20.829 44.8339 20.5975C45.0198 20.3658 45.151 20.1029 45.2273 19.8088H47.2732C47.1492 20.5286 46.9012 21.1701 46.5292 21.7334C46.1572 22.2904 45.6899 22.7255 45.1272 23.0385C44.5644 23.3514 43.9492 23.5047 43.2817 23.4985ZM41.4791 16.1378C41.3647 16.3994 41.2856 16.6811 41.2415 16.9828H45.3031C45.2736 16.6016 45.184 16.2542 45.0341 15.9407C44.8625 15.5714 44.6288 15.2866 44.3332 15.0863C44.0375 14.8798 43.7037 14.7765 43.3317 14.7765C42.9359 14.7765 42.5759 14.8954 42.2516 15.1333C41.9273 15.3711 41.6698 15.706 41.4791 16.1378Z" fill="white"/>
<path d="M57.8527 12.9082C57.8527 12.0694 57.9982 11.3246 58.2891 10.6737C58.58 10.0165 58.9877 9.50637 59.5123 9.14335C60.0416 8.77406 60.6592 8.58317 61.3649 8.57065V10.8521C61.0359 10.8583 60.7546 10.9491 60.5209 11.1243C60.292 11.2933 60.1155 11.5406 59.9915 11.866C59.8773 12.1657 59.8157 12.513 59.8067 12.9082H61.322V15.0769H59.8055V23.2544H57.8527V15.0769H56.5937V12.9082H57.8527Z" fill="white"/>
<path fill-rule="evenodd" clip-rule="evenodd" d="M69.0545 23.4798C68.2582 23.4798 67.5453 23.2512 66.9157 22.7943C66.291 22.3312 65.7999 21.6927 65.4422 20.8791C65.0893 20.0591 64.9128 19.1297 64.9128 18.0907C64.9128 17.0454 65.0893 16.1128 65.4422 15.2929C65.7999 14.4667 66.291 13.8251 66.9157 13.3682C67.5453 12.9113 68.2582 12.6828 69.0545 12.6828C69.8557 12.6828 70.5711 12.9113 71.2005 13.3682C71.8348 13.8251 72.3283 14.4635 72.6812 15.2835C73.0341 16.1034 73.2129 17.0391 73.2177 18.0907C73.2129 19.1297 73.0341 20.0591 72.6812 20.8791C72.3331 21.6927 71.8419 22.3312 71.2077 22.7943C70.5734 23.2512 69.8557 23.4798 69.0545 23.4798ZM69.0545 21.1232C69.4742 21.1232 69.8462 20.998 70.1705 20.7476C70.4948 20.491 70.7451 20.1342 70.9215 19.6773C71.098 19.2142 71.1862 18.6853 71.1862 18.0907C71.1862 17.4898 71.098 16.9578 70.9215 16.4946C70.7451 16.0314 70.4948 15.6747 70.1705 15.4243C69.8462 15.1677 69.4742 15.0394 69.0545 15.0394C68.6397 15.0394 68.2701 15.1677 67.9458 15.4243C67.6263 15.6747 67.3783 16.0314 67.2019 16.4946C67.0254 16.9578 66.9396 17.4898 66.9444 18.0907C66.9444 18.6853 67.0326 19.2142 67.209 19.6773C67.3902 20.1342 67.6382 20.491 67.953 20.7476C68.2725 20.998 68.6397 21.1232 69.0545 21.1232Z" fill="white"/>
<path d="M75.3279 12.9082H73.1534L75.5067 23.2544H77.4095L78.9574 16.6463L80.6287 23.2544H82.5027L84.8631 12.9082H82.8964L81.5575 19.348L80.0779 12.9082H78.1749L76.7023 19.4899L75.3279 12.9082Z" fill="white"/>
</svg>
